<svg xmlns="http://www.w3.org/2000/svg" viewBox="0 0 1125 527">

  <defs>
    <linearGradient id="textGrad" gradientUnits="userSpaceOnUse" x1="95" y1="0" x2="1032" y2="0">
      <stop offset="0%" stop-color="#A8E6CF"/>
      <stop offset="100%" stop-color="#6EC6FF"/>
    </linearGradient>
  </defs>

  <!-- l -->
  <path fill="url(#textGrad)" d="M161.185 93.099 C 162.183 93.633,163.788 95.272,164.750 96.741 C 166.387 99.238,166.532 107.639,167.000 226.456 C 167.491 351.237,167.536 353.560,169.500 356.895 C 172.915 362.693,175.808 364.139,185.505 364.893 C 193.528 365.516,194.434 365.806,196.514 368.415 C 199.572 372.251,199.977 375.527,199.983 396.500 C 199.990 417.129,199.262 420.965,194.730 424.192 C 191.855 426.240,190.145 426.509,177.887 426.846 C 132.344 428.096,108.434 412.952,98.762 376.726 L 96.565 368.500 96.252 233.800 L 95.938 99.101 98.733 95.972 C 100.271 94.252,102.997 92.541,104.792 92.172 C 109.679 91.166,159.090 91.978,161.185 93.099"/>

  <!-- u -->
  <path fill="url(#textGrad)" d="M297.874 182.028 L 300.902 185.056 301.241 256.778 C 301.546 321.421,301.751 329.085,303.323 334.425 C 309.215 354.452,324.824 366.000,346.000 366.000 C 363.297 366.000,377.431 357.949,384.450 344.099 C 390.167 332.816,390.246 331.618,390.063 258.302 C 389.950 212.944,390.245 189.804,390.972 187.105 C 391.564 184.906,393.223 182.183,394.659 181.054 C 397.154 179.091,398.536 179.000,425.735 179.000 L 454.200 179.000 457.600 182.400 L 461.000 185.800 461.000 255.939 C 461.000 329.769,460.603 338.424,456.469 354.721 C 451.898 372.742,444.918 385.731,433.025 398.350 C 412.887 419.717,384.450 430.000,345.500 430.000 C 283.915 430.000,245.814 402.524,233.870 349.500 C 231.660 339.691,231.610 338.050,231.262 263.571 C 230.995 206.620,231.202 186.926,232.091 184.780 C 234.344 179.341,235.893 179.084,266.673 179.040 L 294.846 179.000 297.874 182.028"/>

  <!-- mm -->
  <path fill="url(#textGrad)" d="M683.500 177.871 C 703.072 182.757,719.834 194.392,730.031 210.169 C 732.136 213.426,734.049 216.183,734.282 216.296 C 734.515 216.408,737.028 213.575,739.868 210.000 C 758.972 185.947,787.755 173.570,820.500 175.327 C 863.069 177.611,891.366 201.682,901.459 244.195 C 905.625 261.743,906.000 270.163,906.000 346.061 L 906.000 418.200 902.600 421.600 L 899.200 425.000 871.116 425.000 L 843.032 425.000 839.929 422.228 C 837.765 420.294,836.587 418.102,836.032 414.978 C 835.595 412.515,835.195 380.710,835.143 344.301 C 835.038 271.269,834.889 269.200,828.910 257.983 C 825.011 250.667,818.715 244.695,811.175 241.160 C 805.942 238.707,804.487 238.500,792.500 238.500 C 779.704 238.500,779.394 238.553,772.704 241.910 C 764.769 245.891,757.372 253.405,753.662 261.252 C 748.214 272.777,748.000 276.094,748.000 349.008 C 748.000 406.575,747.788 416.510,746.506 418.989 C 743.417 424.963,743.204 425.000,712.412 425.000 C 685.946 425.000,684.121 424.883,681.770 423.034 C 680.395 421.953,678.770 419.815,678.157 418.284 C 677.388 416.359,676.946 393.745,676.725 345.000 C 676.441 282.278,676.219 273.864,674.711 268.733 C 670.786 255.375,663.853 246.529,653.217 241.307 C 647.842 238.668,646.721 238.500,634.500 238.500 C 622.471 238.500,621.070 238.701,615.747 241.196 C 608.296 244.688,600.058 252.538,596.150 259.870 C 589.665 272.037,589.720 271.338,589.081 348.833 L 588.500 419.166 585.234 422.083 L 581.968 425.000 554.531 425.000 C 536.933 425.000,526.240 424.611,524.712 423.915 C 523.402 423.318,521.469 421.405,520.415 419.665 C 518.563 416.604,518.490 412.781,518.201 303.500 C 517.994 225.176,518.232 189.366,518.975 186.804 C 519.565 184.771,521.223 182.183,522.659 181.054 C 525.147 179.097,526.548 179.000,552.412 179.000 C 582.397 179.000,582.958 179.108,584.843 185.253 C 585.391 187.039,586.143 192.774,586.514 197.998 C 586.885 203.223,587.408 207.851,587.675 208.283 C 587.942 208.716,591.022 205.979,594.519 202.202 C 607.648 188.022,624.494 179.033,643.539 176.046 C 652.854 174.585,674.250 175.562,683.500 177.871"/>

  <!-- i dot -->
  <path fill="url(#textGrad)" d="M1007.201 77.109 C 1024.588 80.746,1036.528 94.359,1037.732 111.915 C 1038.961 129.845,1031.690 143.090,1016.495 150.600 C 1002.359 157.586,984.587 156.199,971.907 147.120 C 956.845 136.335,952.053 115.669,960.391 97.458 C 967.665 81.569,987.437 72.974,1007.201 77.109"/>

  <!-- i stem -->
  <path fill="url(#textGrad)" d="M1029.077 181.923 L 1032.000 184.846 1032.000 301.523 L 1032.000 418.200 1028.600 421.600 L 1025.200 425.000 997.116 425.000 L 969.032 425.000 965.766 422.082 L 962.500 419.164 962.238 302.494 L 961.975 185.825 965.388 182.412 L 968.800 179.000 997.477 179.000 L 1026.154 179.000 1029.077 181.923"/>

</svg>
